<svg version="1.1" id="Layer_1" xmlns="http://www.w3.org/2000/svg" xmlns:xlink="http://www.w3.org/1999/xlink" x="0px" y="0px"
								viewBox="0 0 500 500" style="enable-background:new 0 0 500 500;" xml:space="preserve">
							<path class="st0" fill="#f0ba1f" stroke="#f0ba1f" d="M367.9,5c6.6,1.8,13.4,3,19.6,5.6c37.5,15.7,54.3,55.4,40,94.1c-7.8,21-15.6,42-23.8,62.9
								c-2.8,7.2-1.9,13,3.3,18.8c20.1,22.4,35.1,47.9,44.1,76.7c14.9,47.3,13.9,94.3-3.7,140.8c-10.7,28.2-27,52.9-48.2,74.3
								c-10.5,10.6-23.1,16-38,16c-74.5,0-149,0-223.6,0c-14.9,0-27.5-5.3-38-16c-35.2-35.6-56.2-78.2-61-127.9
								c-5.8-59.5,10.2-112.9,49.1-158.6c8.5-9.9,10.5-18.3,5.3-30.4c-8.6-20.1-16.4-40.7-23.1-61.6C56.1,57,82.7,14,126.9,6
								c1.4-0.2,2.7-0.7,4.1-1C210,5,288.9,5,367.9,5z M249,475c37.4,0,74.8-0.1,112.3,0c9.6,0,17.5-3.3,24.3-10.2
								c33.4-33.8,52.4-74.2,56.2-121.6c2.5-32-2.7-62.7-15.4-92.2c-8.5-19.6-20.1-37.1-34.3-53c-9.8-11-11.5-23.1-6.2-36.8
								c8.3-21.5,16.6-43,24.3-64.7C423,60.2,398,24.3,359.6,24.2C286.2,24,212.8,24,139.4,24.3c-7.1,0-14.7,1.5-21.3,4.2
								C90.7,39.7,78.6,69.3,89.2,97.9c7.9,21.3,16.3,42.4,23.9,63.8c1.9,5.4,2.7,11.4,2.7,17.2c0,9.6-6.3,16.3-12.2,23.1
								c-28.1,32.7-43.8,70.5-46.5,113.6c-3.5,57.7,15.4,107.1,55.6,148.6c7.2,7.5,15.6,11,25.9,10.9C175.4,474.9,212.2,475,249,475z"/>
							<path class="st1" fill="#f0ba1f" stroke="#f0ba1f" d="M371.2,95.8c-1.5,5.6-2.5,11.4-4.5,16.9c-3.1,8.5-6.8,16.8-10.3,25.1c-5.9,14.1-16.7,18.8-30.8,12.8
								c-26.3-11.2-53.8-16.4-82.3-15.5c-23.4,0.7-46,5.6-67.7,14.5c-4.7,1.9-10.1,3.3-15.1,3.2c-8-0.2-13.6-5.1-16.8-12.3
								c-4.4-10.2-8.9-20.4-12.6-30.9c-9.4-26.2,9.1-52.9,36.9-53c54.3-0.2,108.6-0.2,162.9,0C352.9,56.7,369.7,73.6,371.2,95.8z
								M351.6,96.6c-0.1-12-9.5-20.9-22.9-20.9c-52.9,0-105.7,0-158.6,0c-17.4,0-26.7,13.7-20.3,29.9c3.1,8,6.7,15.8,9.7,23.9
								c1.6,4.3,3.4,5.1,7.7,3.2c23.9-10.4,49-15.7,75-16.6c31.1-1,61.1,4.4,89.8,16.7c3.8,1.6,5.6,1.2,7.1-2.9c2.9-7.9,6.4-15.6,9.5-23.4
								C349.9,103.3,350.7,99.9,351.6,96.6z"/>
							<path class="st0" fill="#f0ba1f" stroke="#f0ba1f" d="M249.5,425.7c-39.3-1.7-68.5-19.6-87.2-54.4c-2.9-5.4-1.5-10.6,3.1-13.3c4.7-2.8,9.8-1.2,13.5,4
								c5.5,7.7,10.5,16.1,17.1,22.7c38.9,38.3,106.3,23.4,126.1-27.4c19.7-50.7-14.8-105-69.1-107.2c-32.1-1.3-56.6,13.1-72.6,41.4
								c-1.2,2.1-2.2,4.3-3.4,6.3c-3.1,5.1-7.9,6.8-12.5,4.6c-4.8-2.3-7.1-7.8-4.4-12.9c4.4-8.2,8.8-16.8,14.8-23.8
								c24.8-28.8,56.7-40.3,93.8-32.8c36.9,7.5,61.8,30.4,73.5,66.3c18.5,56.7-20.4,117.7-79.4,125.3C258.5,425,254.1,425.3,249.5,425.7z"
								/>
							<path class="st1" fill="#f0ba1f" stroke="#f0ba1f" d="M295.4,168.4c3.6,1.2,8.8,2.7,13.8,4.7c31.6,12.5,57.2,32.7,76.8,60.5c3.7,5.3,2.9,11-1.7,14.3
								c-4.4,3.1-9.9,2.1-13.7-3.2c-14.3-20.1-32-36.2-54-47.3c-7.9-4-16.4-6.8-24.6-10.1c-6.7-2.7-9.6-7.7-7.2-13.2
								C286.4,170.5,289.8,168.3,295.4,168.4z"/>
							<path class="st0" fill="#f0ba1f" stroke="#f0ba1f" d="M250.1,181c-5.6,0.1-10-4-10.1-9.3c-0.1-5.1,4.4-9.6,9.8-9.7c5.4-0.1,10,4.2,10.1,9.4
								C260,176.6,255.6,180.9,250.1,181z"/>
							<path class="st1" fill="#f0ba1f" stroke="#f0ba1f" d="M161.7,318.6c5.2,0.1,9.6,4.8,9.4,10.1c-0.2,5.2-4.5,9.3-9.6,9.3c-5.3-0.1-9.6-4.7-9.4-10
								C152.3,322.7,156.7,318.5,161.7,318.6z"/>
							</svg>