<svg version="1.1" id="Layer_1" xmlns="http://www.w3.org/2000/svg" xmlns:xlink="http://www.w3.org/1999/xlink" x="0px" y="0px"
								viewBox="0 0 500 500" style="enable-background:new 0 0 500 500;" xml:space="preserve">							
							<path class="st0" fill="#f0ba1f" stroke="#f0ba1f" d="M104.1,227.5c4,0.4,7.3,0.7,10.6,1.2c11.6,1.6,22,6.5,27.4,17c12.9,25.3,35.4,39.9,57.8,55.2
								c18,12.3,33.4,27.6,44.3,46.8c2.1,3.8,3.5,8,5.3,12c9.6-26,29.1-43.5,50.3-59.5c8.4-6.3,17.1-12.3,26-17.8
								c8.2-5.1,14.5-11.7,19.6-19.8c3.4-5.4,7-10.6,10.5-16c7.4-11.6,18.2-17.4,31.8-18.4c2.2-0.2,4.4-0.5,6.6-0.8c0-4.9,0.2-9.6,0-14.3
								c-0.6-15.7,0.3-31.2,6.2-46c4.5-11.3,11.7-20,24.2-23.1c2.6-0.6,5.3-0.9,8-1c4.7,0,7.4,2.5,8,7.1c2.6,22.4,5.8,44.9,7.3,67.4
								c0.7,11.8-1.8,23.7-2.9,35.6c-1.5,16.6-2.7,33.3-4.5,49.9c-0.4,3.9-1.9,8.2-4.3,11.3c-4.3,5.7-9.4,10.8-14.4,15.8
								c-16.3,16.3-32.9,32.4-49.1,48.8c-4,4-7,9.1-10,13.9c-4.3,6.7-6.5,14-6.2,22.1c0.3,10.8,0.1,21.7,0.1,32.5c0,5.8-2.7,9-7.5,9.1
								c-4.9,0.1-7.8-3.2-7.8-9.3c0-9.7,0.5-19.5-0.1-29.1c-1-15.2,3.6-28.6,13-39.9c11.8-14.1,24.6-27.4,37.4-40.7
								c9.1-9.4,18.9-18,28.3-27.1c3.7-3.5,5.5-7.5,5.9-12.9c2-25.1,4.8-50.1,6.8-75.1c0.5-6.6-0.8-13.3-1.5-19.9
								c-1.5-14.2-3.1-28.4-4.8-43c-5.1,1.5-8.3,5.1-9.8,9.3c-2.7,7.9-5.4,16-6.2,24.3c-1.1,11-0.1,22.2-0.3,33.4
								c-0.3,22.9-7.9,43.9-16,64.9c-0.5,1.4-1.8,2.6-2.9,3.7c-11.9,12-23.8,23.9-35.8,35.8c-4.9,4.8-10.7,4.3-13.4-1.2c-2-4-0.1-7,2.7-9.8
								c10.9-10.9,21.9-21.8,32.7-32.8c2.1-2.2,4.1-5,5.1-7.8c3.6-11.3,6.8-22.8,10.2-34.3c0.2-0.5,0-1.2,0-1.9
								c-10.3-0.2-18.4,3.2-24.1,11.9c-6.2,9.4-12.7,18.7-19.3,27.8c-1.7,2.4-4.1,4.4-6.5,6.1c-16.2,11.8-33,22.8-48.5,35.5
								c-9.2,7.6-16.5,17.6-24.1,26.9c-4.1,5-6,11.2-5.2,17.9c2,15,4.5,29.9,6,44.9c1.2,11.8,1.3,23.8,1.4,35.7c0,4.2-3.2,6.4-7.4,6.6
								c-3.9,0.2-7-2.5-7.6-6.4c-0.1-0.5-0.1-1-0.1-1.4c1.8-20.1-3.1-39.5-6.2-59.1c-0.5-3-0.6-6-1.8-9.1c-0.4,3.4-0.8,6.8-1.3,10.2
								c-0.6,4.4-1,8.9-2.2,13.2c-3.8,14.2-4.1,28.6-4,43.1c0,2.6-1,6-2.8,7.5c-1.8,1.5-5.9,2.1-7.7,1c-2.2-1.4-4.3-4.8-4.5-7.5
								c-0.8-15.9,0.2-31.7,3.8-47.4c2.2-9.7,2.4-19.9,3.6-29.8c1-8.3-1.9-15.3-6.6-21.8c-10.1-13.9-22.2-25.8-36.1-35.9
								c-11-7.9-22.4-15.1-33.4-23.1c-4.1-2.9-7.9-6.5-10.9-10.5c-5.8-7.8-11.1-15.9-16.3-24.1c-5.7-8.9-13.9-12.6-25.1-12.4
								c2.6,9.3,5.1,18.2,7.5,27.2c2.3,8.8,6.8,16.1,13.7,22.3c9.2,8.3,17.6,17.5,26.4,26.3c0.9,0.9,1.8,1.8,2.6,2.8
								c2.7,3.5,2.5,7.4-0.5,10.3c-3,2.9-7.2,3.3-10.3,0.2c-13-12.8-26.6-25.3-38.5-39.1c-4.9-5.7-6.4-14.4-8.9-21.9
								c-6.5-19.6-9.7-39.7-8.9-60.5c0.4-11.2-1.2-22.5-2.9-33.6c-1.2-7.4-4.8-14.2-13-17.9c-1,8.5-2,16.6-2.9,24.7
								c-1.2,10.7-3,21.5-3.4,32.3c-0.3,8.4,1,16.8,1.7,25.2c1.7,20,3.4,40,5.5,59.9c0.3,2.7,2,5.7,4,7.7c9.2,9.2,18.7,18.2,28.2,27.1
								c13.9,13.1,27.8,26.2,38.9,41.9c8.6,12.1,13.9,25.2,12.9,40.5c-0.6,9-0.1,18.1-0.1,27.2c0,7.2-2.7,10.9-7.8,10.8
								c-5-0.1-7.5-3.6-7.5-10.6c0-10.2-0.3-20.4,0.1-30.6c0.3-8.7-2.2-16.3-6.7-23.5c-8.5-13.7-19.7-24.9-31.2-36
								c-12.2-11.8-24.7-23.5-36.9-35.4c-6.3-6.1-9.3-13.2-9.9-22.4c-1.6-25.1-4.8-50-6.7-75.1c-0.6-7.8,0.8-15.8,1.7-23.7
								c1.7-16,3.6-31.9,5.4-47.9c0.8-6.7,3.3-8.9,10.1-8.5c13.6,0.9,22.7,8.3,28.5,20.2c7.6,15.6,8.5,32.4,7.9,49.4
								C104.6,217.5,104.4,222.2,104.1,227.5z"/>
							<path class="st1" fill="#f0ba1f" stroke="#f0ba1f" d="M249.6,104.1c7.1-14.1,15.2-26.4,25.9-36.9c13.3-13.1,28.7-22.3,47.9-23.1c33.6-1.3,62.5,22.5,69.5,56.3
								c4.6,22.1,0.2,42.6-9.4,62.5c-13.6,28.1-33.7,51.2-56.4,72.1c-21.4,19.7-45.1,36.3-70.3,50.8c-5,2.9-9,3.1-14.1,0.1
								c-42.8-24.6-80.9-54.7-110.2-95c-12.5-17.2-22.8-35.7-26.6-57c-4.3-23.8-0.1-46.1,15.5-65.2c25.3-30.9,67.3-33.1,98.2-5.5
								c11.4,10.2,20.2,22.4,27.4,35.8C247.6,100.6,248.3,101.9,249.6,104.1z M379.4,116.5c-0.2-2.1-0.5-6.3-1.2-10.3
								c-0.6-3.4-1.6-6.8-2.7-10.1c-10.7-31.6-49.4-49.8-80.9-25.2c-9.8,7.6-18.1,16.7-24.1,27.4c-5.1,9.1-9.2,18.8-13.6,28.3
								c-1.5,3.3-3.6,5.6-7.5,5.6c-3.9,0-6.2-2.2-7.5-5.6c-0.5-1.2-0.8-2.4-1.3-3.6c-7.3-19-17.5-36-33.1-49.5c-19-16.4-41.9-19-61.6-6.1
								c-21.4,13.9-28.3,34.8-25.9,59.2c1.9,19.4,11.1,36.1,22,51.7c27.5,39.2,63.8,68.5,104.8,92.3c1.4,0.8,4.3,0.5,5.9-0.4
								c22.7-13,43.9-28.2,63.2-45.9c20.9-19.1,39.5-40.2,52.5-65.6C375,146.1,379.4,132.9,379.4,116.5z"/>
							</svg>