<svg version="1.1" id="Group_33" xmlns="http://www.w3.org/2000/svg" xmlns:xlink="http://www.w3.org/1999/xlink" x="0px" y="0px"
								viewBox="0 0 44.8 45" style="enable-background:new 0 0 44.8 45;" fill="transparent" xml:space="preserve">
							<path id="Path_44" fill="#f0ba1f" stroke="#f0ba1f" class="st0" d="M24.7,20.1v-4.8c0-0.4,0.4-0.8,0.8-0.8s0.8,0.4,0.8,0.8v4.8c0,0.4-0.4,0.8-0.8,0.8
								S24.7,20.6,24.7,20.1z"/>
							<path id="Path_45" fill="#f0ba1f" stroke="#f0ba1f" class="st0" d="M19.9,18.3l0.8,2.4c0.1,0.4-0.1,0.9-0.5,1c-0.4,0.1-0.9-0.1-1-0.5l-0.8-2.4
								c-0.1-0.4,0.1-0.9,0.5-1C19.3,17.6,19.7,17.8,19.9,18.3z"/>
							<path id="Path_46" fill="#f0ba1f" stroke="#f0ba1f" class="st0" d="M31.1,21.7c-0.4,0-0.8-0.4-0.8-0.8c0-0.1,0-0.2,0-0.3l0.8-2.4c0.1-0.4,0.6-0.6,1-0.5
								s0.6,0.6,0.5,1l-0.8,2.4C31.8,21.5,31.5,21.7,31.1,21.7z"/>
							<path id="Path_47" fill="#f0ba1f" stroke="#f0ba1f" class="st0" d="M19.5,8.1c0.9-0.1,1.8-0.4,2.6-0.8l-0.5,2.1c-0.3,0.3-0.7,0.5-1.1,0.6c-0.6,0.1-1.3-0.1-1.8-0.5
								l0.7-1C19.4,8.4,19.5,8.2,19.5,8.1z"/>
							<path class="st1" d="M33.4,36.2L32,36.6c-0.1,0.2-0.2,0.3-0.4,0.5c-1.3,1.3-2.7,2.3-4.6,2.7c-0.9,0.2-1.9,0.3-2.7,0.2
								c-0.7,0-1.3-0.4-1.9-0.4c-0.4,0-0.7-0.1-0.9-0.2l-2,0.5l0.2,0.8c0.8,0.2,1.6,0.5,2.4,0.7c0.9,0.2,1.9,0,2.8,0c0.4,0,0.7,0.1,1,0.2
								l2.9-0.8c1.1-0.5,2.2-1,3.2-1.4c0,0,0,0,0,0c0.7-0.4,0.9-0.6,1.6-1.3c0.1-0.1,0.2-0.2,0.3-0.3c0,0,0,0,0,0c0-0.2,0-0.4,0-0.5
								c0-0.1,0-0.1,0-0.2C33.6,36.7,33.5,36.5,33.4,36.2z"/>
							<path id="Path_48" fill="#" stroke="#f0ba1f" class="" d="M0,36.6C0.5,33.8,2.4,24,5,18c3.3-7.7,9.3-16.7,11-17.6c1.8-0.9,12.3-0.3,15.6,1.2
								c3.1,1.4,2.7,4.9,2.2,8.2c-0.1,0.4-0.2,0.9-0.2,1.4c-0.3,0.1-0.7,0.2-1.1,0.2c-0.4-0.1-0.8-0.3-1.1-0.7c-0.2-0.2-0.3-0.4-0.3-0.7
								l0.3-1.8c0.1-0.4-0.2-0.9-0.7-0.9c-0.4-0.1-0.9,0.2-0.9,0.7l-0.3,1.7c-0.2,0.6-0.5,1-1,1.3c-0.5,0.2-1,0.1-1.5-0.1c0,0,0,0,0-0.1
								l0.8-3.4c0.1-0.4-0.2-0.9-0.6-1c-0.4-0.1-0.9,0.2-1,0.6l0,0l-0.8,3.2c-0.3,0.3-0.7,0.6-1.1,0.6c-0.6,0-1.1-0.3-1.5-0.7
								c0,0,0-0.1,0.1-0.1l1-4c0.1-0.4-0.1-0.9-0.6-1c-0.1,0-0.2,0-0.3,0c-0.2,0-0.4,0-0.6,0.1c-1.7,1.2-3.1,1.7-4,1.3
								c-0.6-0.3-1-0.9-1.1-1.6C17.4,4.3,17,4,16.6,4.1c-0.4,0.1-0.7,0.5-0.7,0.9c0.2,1.2,1,2.2,2,2.8L15.5,11c-0.5,0.6-0.8,1.4-0.8,2.2
								c0,1.2,0,2.4,0,3.6c0.1,2.4,0,4.9-0.4,7.2c-0.6,2.9-1.5,5.7-2.4,8.5L11.7,33c0,0,0,0,0,0c0,0.1,0,0.1,0,0.2c0,0,0,0.1,0,0.1
								c0,0,0,0.1,0,0.1c0,0,0,0.1,0.1,0.1c0,0,0.1,0.1,0.1,0.1c0,0,0.1,0.1,0.1,0.1c0,0,0,0,0,0c0.1,0,0.1,0.1,0.2,0.1c0,0,0,0,0,0h0
								c0.1,0,0.1,0,0.2,0c0,0,0,0,0,0c0.1,0,0.2,0,0.3-0.1c0,0,0,0,0.1,0c0.1-0.1,0.2-0.1,0.3-0.2l0,0c0.1-0.1,5.8-8.1,10.9-9
								c6.9-1.3,13.8,3,13.9,3c0.4,0.2,0.9,0.1,1.1-0.3c0.2-0.4,0.1-0.9-0.3-1.1l0,0c-1.5-0.9-3.1-1.6-4.8-2.2l0.3-0.4
								c0.9-1.4,2.1-2.7,3.5-3.7c1.2-0.7,2.4-1.3,3.7-1.8c0.5-0.2,0.9-0.4,1.4-0.6l1.9-0.9V45h-4c-0.1,0-0.1,0-0.1,0l0,0c0,0-3.7-0.9-6-1.8
								c2-1.1,3.8-2.5,5.4-4.2c0.3-0.3,0.3-0.8-0.1-1.1s-0.8-0.3-1.1,0.1l0,0c-0.1,0.1-8.1,9-19.9,6C8.5,41.3,4.6,40.2,3.7,39.9
								c-0.1,0-0.2-0.1-0.2-0.1l-3.1-2.4C0.1,37.2,0,36.9,0,36.6z M19.7,40.9c1.6,0.4,3.1,0.6,4.7,0.6c6.5,0,8.9-4,9-4.2
								c0.2-0.4,0.1-0.9-0.3-1.1c-0.4-0.2-0.9-0.1-1.1,0.3l0,0c-0.1,0.2-3.1,5-11.9,2.8c-0.4-0.1-0.9,0.2-1,0.6S19.3,40.8,19.7,40.9
								L19.7,40.9z"/>
							</svg>