<svg version="1.1" id="Layer_1" xmlns="http://www.w3.org/2000/svg" xmlns:xlink="http://www.w3.org/1999/xlink" x="0px" y="0px"
								viewBox="0 0 45 45" style="enable-background:new 0 0 45 45;" xml:space="preserve">							
<path id="Path_960" fill="#f0ba1f" stroke="#f0ba1f" class="st0" d="M41,1.6V0.8C41,0.4,40.6,0,40.2,0s-0.8,0.4-0.8,0.8v0.8c0,2.2-1.8,4-4,4h-5.6
	c-0.4,0-0.8,0.4-0.8,0.8c0,0.4,0.4,0.8,0.8,0.8h5.6C38.5,7.2,41,4.7,41,1.6L41,1.6z"/>
<path id="Path_961" fill="#f0ba1f" stroke="#f0ba1f" class="" d="M44.2,29.7c0-3.4-2.1-6.4-5.4-7.6L43,33.9C43.8,32.6,44.2,31.2,44.2,29.7z"/>
<path id="Path_962" fill="#f0ba1f" stroke="#f0ba1f" class="" d="M10.5,35.4L10.5,35.4c-0.6,0-1.2-0.1-1.8-0.3L3,40.2c0.6,0.1,1,0.5,1.4,0.9l6.4-5.8L10.5,35.4z"
	/>
<circle id="Ellipse_19" fill="#f0ba1f" stroke="#f0ba1f" class="st3" cx="10.4" cy="29.7" r="0.8"/>
<path id="Rectangle_285" fill="#f0ba1f" stroke="#f0ba1f" class="" d="M1.6,41.8L1.6,41.8c0.9,0,1.6,0.7,1.6,1.6l0,0c0,0.9-0.7,1.6-1.6,1.6l0,0
	C0.7,45,0,44.3,0,43.4l0,0C0,42.5,0.7,41.8,1.6,41.8z"/>
<path id="Path_963" fill="#f0ba1f" stroke="#f0ba1f" class="" d="M42.6,40.2h1L32.4,8.8h-1.5l11.2,31.4C42.2,40.2,42.4,40.2,42.6,40.2z"/>
<path id="Rectangle_286" class="" fill="#f0ba1f" stroke="#f0ba1f" d="M43.4,41.8L43.4,41.8c0.9,0,1.6,0.7,1.6,1.6l0,0c0,0.9-0.7,1.6-1.6,1.6l0,0
	c-0.9,0-1.6-0.7-1.6-1.6l0,0C41.8,42.5,42.5,41.8,43.4,41.8z"/>
<path id="Path_964" fill="#f0ba1f" stroke="#f0ba1f" class="st0" d="M35.2,25.7L33.9,22c-1.8,0.5-3.4,1.7-4.4,3.3L35.2,25.7z"/>
<path id="Path_965" fill="#f0ba1f" stroke="#f0ba1f" class="" d="M9.6,12.9v-0.2c0-0.4-0.3-0.7-0.7-0.8l-8-1.1c0,0-0.1,0-0.1,0C0.4,10.7,0,11,0,11.5l0,0v1.4
	c0,0.4,0.4,0.8,0.8,0.8h0h8C9.3,13.7,9.6,13.3,9.6,12.9C9.6,12.9,9.6,12.9,9.6,12.9z"/>
<path id="Path_966" fill="#f0ba1f" stroke="#f0ba1f" class="" d="M31.7,16l-0.5-1.4l-11.1,10l2,0.1L31.7,16z"/>
<path id="Path_967" fill="#f0ba1f" stroke="#f0ba1f" class="" d="M8.7,24.4l-3.6-9.1H3.6L7.4,25C7.8,24.8,8.2,24.6,8.7,24.4L8.7,24.4z"/>
<path id="Path_968" fill="#f0ba1f" stroke="#f0ba1f" class="" d="M10.4,33.8l0.6,0l0.7,0l-0.8-1.6c-1.3,0.2-2.6-0.7-2.8-2c-0.2-1.3,0.7-2.6,2-2.8
	c1.3-0.2,2.6,0.7,2.8,2c0.1,0.7-0.1,1.5-0.6,2l1.2,2.2l22.7-1.4h0.1c0.4,0,0.8-0.1,1.2-0.3l-1.6-4.5l-25.3-1.6c-2.2,0-4,1.8-4,4
	S8.2,33.8,10.4,33.8z"/>
<path id="Path_969" fill="#f0ba1f" stroke="#f0ba1f" class="st0" d="M36.2,37.8c1.1,0,2.1-0.2,3.1-0.6l-1.4-3.8c-0.5,0.3-1.1,0.4-1.7,0.4l-6.7,0.4
	C31,36.4,33.5,37.8,36.2,37.8z"/>
<path id="Path_970" fill="#f0ba1f" stroke="#f0ba1f" class="" d="M4.8,42.6h35.4v1.6H4.8V42.6z"/>
</svg>