<svg version="1.1" id="Layer_1" xmlns="http://www.w3.org/2000/svg" xmlns:xlink="http://www.w3.org/1999/xlink" x="0px" y="0px"
								viewBox="0 0 500 500" style="enable-background:new 0 0 500 500;" xml:space="preserve">
<path class="st0" fill="#f0ba1f" stroke="#f0ba1f"  d="M5,298.2c2.3-8.8,5.1-17.2,11-24.4c17.4-21.1,48.5-23.4,68.8-5.1c0.9,0.8,1.8,1.7,3.1,2.8
    c3.3-8.9,7.9-16.5,15.1-22.5c8.5-7,18.2-10.9,29.3-11.1c5-0.1,8.1,2.3,8.4,6.5c0.3,4.4-2.4,7.5-7.6,7.9
    c-13.1,0.9-23.2,6.7-28.9,18.7c-2.2,4.6-3.5,10-3.6,15.1c-0.3,53.2-0.2,106.3-0.1,159.5c0,16.4,10.7,29.7,25.8,33.1
    c15,3.4,30.3-3.6,36.9-17.9c2.4-5.1,3.5-11.3,3.5-17c0.3-51.9,0.1-103.8,0.2-155.7c0-10.3-3.1-19.3-10.5-26.7c-4.1-4-4.5-7.8-2-11
    c2.8-3.6,7.4-3.8,11.3-0.2c10.5,9.5,15.7,21.6,15.8,35.6c0.1,53.5,0.2,107,0,160.4c-0.1,20.5-13.4,38.8-31.4,44.8
    c-20.9,6.9-41,1.1-54.2-16c-3.2-4.2-5.4-9.2-8.3-14.2c-0.5,0.4-1.2,0.9-1.8,1.4C71.6,475,55.3,479,37.1,472.7
    c-17.1-6-27.2-18.5-31.2-36.1c-0.2-0.9-0.6-1.8-0.9-2.7C5,388.7,5,343.4,5,298.2z M19.5,365.6c0,19.9,0,39.8,0,59.7
    c0,8.1,1.7,15.8,6.8,22.4c8.7,11.3,22.9,15.9,36.2,11.8c14-4.3,23.4-16.3,23.5-31.9c0.3-41.1,0.5-82.1,0-123.2
    c-0.3-24-22.3-39.2-44.3-31.6c-13.6,4.7-22,17.4-22,33.5C19.4,326.1,19.5,345.8,19.5,365.6z"/>
<path class="st1" fill="#f0ba1f" stroke="#f0ba1f"  d="M344.1,5c10.6,2.6,21.7,3.9,31.7,8c40.1,16.4,64.2,46.3,71.3,89.1c4.4,27-0.9,52.5-15.2,76
    c-0.6,0.9-1,1.9-1.6,3.1c11.6,11.5,21,24.4,27.8,39.1c2.5,5.5,4.7,11.1,6.6,16.8c1.7,4.7-0.3,8.8-4.4,10.1c-3.8,1.2-7.7-0.8-9.2-5.4
    c-6.9-21-18.6-38.9-34.8-53.9c-4-3.7-3.9-6.9-0.2-12.3c12.7-18.4,18.4-38.8,17.7-61.2c-1.4-42-32.3-80.8-73-91.3
    c-51.8-13.3-102.4,13.2-120,63.7c-10.6,30.4-6.5,59.6,10.9,86.7c5.8,9,5.8,9.9-1.7,17.4C221,220,209,255.1,214,296
    c0.1,0.8,0.2,1.6,0.2,2.4c0.2,4.8-2.3,8.1-6.4,8.6c-4.1,0.4-7.2-2.3-8-7.1c-2.4-14.9-2.1-29.8,0.5-44.7c4.6-26,15.9-48.8,33.7-68.4
    c1.7-1.9,3.4-3.7,5.3-5.8c-7.4-11.8-12.8-24.3-15.7-37.8c-13.5-62,26.7-123.5,88.9-136c4.2-0.8,8.4-1.5,12.6-2.2
    C331.3,5,337.7,5,344.1,5z"/>
<path class="st0" fill="#f0ba1f" stroke="#f0ba1f"  d="M411.2,271.6c10.1-10.1,21.7-15.3,35.4-15.3c26.7,0,49,23.8,47.4,50.5c-0.3,4.9-3,7.8-7.2,7.9
    c-4.4,0-7.2-3-7.2-8.2c-0.1-13-4.7-23.8-16.1-30.6c-22.6-13.7-50.1,1.9-50.4,29c-0.5,40.7-0.3,81.5,0,122.2
    c0.1,15.7,9.3,27.9,23,32.3c13.5,4.3,27.8-0.2,36.6-11.6c5.2-6.7,6.8-14.6,6.8-22.9c0-29.6,0-59.2,0-88.8c0-1.6-0.1-3.2,0.1-4.8
    c0.4-3.8,2.6-6.1,6.5-6.4c4.1-0.3,6.7,1.8,7.6,5.7c0.4,1.7,0.3,3.5,0.3,5.2c0,29.8,0,59.5,0,89.3c0,21.5-9.2,37.7-28.9,46.4
    c-19.4,8.5-37.3,4.4-52.8-10.1c-0.2-0.2-0.5-0.3-1.2-0.8c-1.3,2.7-2.3,5.4-3.7,8c-10.6,19.2-32.5,29.3-52.3,24.3
    c-22.6-5.7-37.3-24.1-37.5-47.5c-0.2-22.1,0-44.2,0-66.4c0-30.6-0.2-61.1,0.1-91.7c0.1-19.5,8.5-34.5,26-44
    c24.1-13.1,55.4-1.7,65.7,23.9C409.7,268.5,410.3,269.8,411.2,271.6z M398.5,366.1c0-25.8,0-51.5,0-77.3c0-3.2-0.2-6.4-0.7-9.5
    c-4.5-24.5-33.9-35.1-53.2-19.4c-9.3,7.5-12.5,17.6-12.5,29.1c0.1,50.6,0,101.2,0,151.8c0,3.5,0.2,7,0.5,10.5
    c1.7,16.4,18.8,30,35.2,28.1c18.7-2.2,30.6-15.5,30.7-34.5C398.6,418.6,398.5,392.3,398.5,366.1z"/>
<path class="st0" fill="#f0ba1f" stroke="#f0ba1f"  d="M335,156.8c-13.2-0.2-25.9,2.1-38.5,6c-6.9,2.2-8.5,1.6-13.1-4.1c-15.9-20.1-18.1-48.9-5.5-71.3
    c13.5-24,38.8-36.4,66.8-32.7c24.4,3.2,46.5,22.9,52.7,47.3c5.3,21,1.3,40.3-12,57.6c-3.2,4.2-6.7,5.3-11.6,3.7
    C361.2,158.9,348.3,156.7,335,156.8z M293.8,148.1c39.3-7.4,39.3-7.3,79.7-0.4c1.1,0.2,3-0.8,3.6-1.8c10.7-17.8,11.3-35.9,0.3-53.6
    c-10.1-16.2-25.3-24.7-44.5-23.7C292.2,70.8,271.1,114,293.8,148.1z"/>
<path class="st1" fill="#f0ba1f" stroke="#f0ba1f"  d="M252,308.4c15.3,1.8,32.7,3.8,50,6.1c5.6,0.7,8.3,4.3,7.5,8.5c-0.8,4.5-4.7,6.8-10.4,5.6
    c-19.1-3.9-38.5-5.5-57.9-4.4c-13.3,0.7-26.5,2.7-39.8,4.1c-1.6,0.2-3.1,0.6-4.7,0.7c-4,0.2-6.7-1.6-7.6-5.7
    c-0.8-3.8,1.3-7.3,5.3-8.4c3.8-1,7.8-1.8,11.7-2.2C220.6,311.2,235.2,309.9,252,308.4z"/>
<path class="st1" fill="#f0ba1f" stroke="#f0ba1f" d="M249.2,423.8c-17.4-2.1-35.1-4.1-52.7-6.3c-5.5-0.7-8.2-4.2-7.6-8.6c0.7-4.4,4.2-6.7,9.8-5.7
    c19,3.5,38.1,5.7,57.4,4.6c13.6-0.7,27.2-2.5,40.7-4.2c7.5-1,11.4,0.2,12.5,5.1c1.1,4.8-2,8.1-9.6,9.1
    C283.2,420,266.5,421.8,249.2,423.8z"/>
</svg>