<svg version="1.1" id="Layer_1" xmlns="http://www.w3.org/2000/svg" xmlns:xlink="http://www.w3.org/1999/xlink" x="0px" y="0px"
							viewBox="0 0 500 500" style="enable-background:new 0 0 500 500;" xml:space="preserve">						
						<path class="st0" fill="#f0ba1f" stroke="#f0ba1f" d="M480.7,380.2c-0.1-4.7-0.6-9.5-1.5-14.2c-15.7-77.4-31.4-154.9-47.3-232.3c-0.7-3.2-0.1-5.6,2-8.2
							c12.5-15.4,24.8-31,37.5-46.8c-3.5-2.8-6.8-5.5-10.3-8.3c-12.6,15.8-25,31.2-37.2,46.7c-2.1,2.6-4.2,3.8-7.6,3.7
							c-14.8-0.2-29.6-0.1-44.4-0.1c-1.7,0-3.4,0.2-5.1,0.2V134h51.6c0.4,1.8,0.8,3.3,1.2,4.9c12.3,60.4,24.3,121,37.1,181.3
							c6.9,32.9,13.5,65.7,10.9,99.6c-0.1,1.7,0,3.4,0,5.3H31.8c0.5-2.3,0.9-4.3,1.4-6.3c6.3-23.2,26-37.7,51.2-37.7
							c116.7,0,233.4,0,350.1,0h6.4v-13.3h-5.7c-116.7,0-233.4,0-350.1,0c-2.2,0-4.5,0-6.7,0.1c-32.4,1.2-60.3,30.2-60.3,62.5
							c0,5.8,2.3,8.1,8,8.1c6,0.1,12.1,0,18.1,0c4.4,0,8.7,0,13.3,0c0,0.5,0,1.1,0,1.6c1.9-0.1,3.8-0.2,5.7-0.2c2.6-0.1,5.2-0.3,7.8-0.5
							v-0.7h32.6v1.2c1.1-0.3,2.3-0.5,3.5-0.5h5c1.9,0,3.5,0.3,5,0.9V439h264.3c0,0.5,0,1,0,1.4c0.9-0.2,1.8-0.3,2.7-0.3
							c3.6,0,7.2,0.4,10.8,0.9v-2.2h32.6v0.9c0.6,0,1.2,0,1.8,0.1c0.6,0,1.3-0.1,1.9-0.1c0.8,0,1.7,0,2.5,0.1c0.1,0,0.3,0,0.4,0
							c0.2-0.1,0.5-0.1,0.7-0.2c2.1-0.4,4.3-0.4,6.3,0c0-0.4,0-0.8,0-1.2c10.7,0,20.7,0,30.7,0c6.7,0,8.8-2.1,8.9-8.8
							C480.8,413.3,480.9,396.7,480.7,380.2z"/>
						<path class="st1" fill="#f0ba1f" stroke="#f0ba1f" d="M443.6,466.3c0-9,0-18,0-27.4h-14.4c0,0.1,0,0.2,0,0.3h0.3V466h-33.8v-26.8h0.5c0-0.1,0-0.2,0-0.3h-15
							c0,0.1,0,0.3,0,0.4h0.5c0,11-0.1,21.5,0,32.1c0,5.6,2.1,8.3,6.9,8.4c16,0.2,32.1,0.1,48.1,0c4.1,0,6.3-2.6,6.7-6.5
							C443.7,471,443.6,468.6,443.6,466.3z"/>
						<path class="st1" fill="#f0ba1f" stroke="#f0ba1f" d="M118.6,438.9h-14.6c0,0.1,0,0.2,0,0.3h0.2v2.5c0.1,0.5,0.1,1,0,1.5V466H70.4v-26.9h0.3c0-0.1,0-0.2,0-0.3H56.4
							c0,11.2,0,21.6,0,32.1c0,6.7,2.3,8.9,9,8.9c12.2,0.1,24.5,0,36.7,0c16.2,0,16.2,0,16.2-16.1v-24.5h0.4
							C118.7,439.1,118.6,439,118.6,438.9z"/>
						<path class="st1" fill="#f0ba1f" stroke="#f0ba1f" d="M172,155.3c-8.7,0.6-17,1.1-25.1,2c-1.7,0.2-3.6,1.9-4.6,3.4c-6.8,10.2-13.2,20.6-20.2,30.7
							c-5.9,8.5-14.5,11.8-24.6,10.1c-9.7-1.7-16.3-7.6-19.3-17.1c-2.3-7.4-1.4-14.6,3.1-21c9.7-14,19.5-27.9,29.5-41.7
							c7.5-10.4,18.6-13.7,30.8-14.5c14.1-1,28.2-3.2,42.3-3.4c10.5-0.1,21.1,2,31.6,3.7c10.2,1.6,20.2,4.9,30.4,5.7
							c9.1,0.6,18.3-1,27.4-2.2c1.7-0.2,3.6-3,4.5-4.9c5.6-11.6,10.9-23.3,16.6-34.9c4.6-9.5,14.1-14.6,24.2-13.6c10,1,18.9,8.2,20.8,18.2
							c0.9,4.9,0.6,10.7-1.2,15.3c-7.1,17.7-14.7,35.2-22.6,52.6c-5.4,11.8-15,18.3-28.1,19.1c-10.6,0.6-21.3,0.7-32,1.2
							c-1.5,0.1-4,1.2-4.3,2.4c-5.3,20.3-10.4,40.6-15.6,61.5c6.1,1.7,11.8,3.4,17.6,4.8c7.7,1.9,13.8,6,18.7,12.3
							c18.2,23.5,36.7,46.9,55.1,70.2c4.9,6.2,7.4,13.1,5.9,20.9c-2,10.5-8.3,17.6-18.6,20.2c-10.3,2.7-19.3-0.4-26.1-8.7
							c-15.9-19.5-31.8-39-47.3-58.8c-4.8-6.1-10-10-17.9-11.3c-10.5-1.7-20.8-4.4-31.9-6.8c-1.7,6.4-3.3,12.8-4.9,19.2
							c-1.8,7.1-3.4,14.4-8.8,19.8c-3.3,3.3-7.1,6.5-11.3,8.6c-20.6,10.4-41.3,20.5-62.1,30.5c-13.8,6.6-29.3,1.2-35.5-12.3
							c-6.2-13.3-0.6-28.4,13.1-34.8c17.2-8,34.5-15.5,51.6-23.5c1.8-0.9,3.8-2.9,4.4-4.9c11.3-38.6,22.5-77.2,33.7-115.8
							C171.8,157,171.8,156.5,172,155.3z M190.7,116.2c-19.9,1.8-37.9,3.1-55.7,5.4c-4.4,0.6-9.8,3.4-12.5,7c-10.6,13.7-20.5,28-30.3,42.3
							c-3.4,5-1.6,11.9,3.2,15.3c5,3.5,11.4,2.7,15.5-2c1-1.2,1.9-2.6,2.8-3.9c6.7-10.3,13.2-20.7,20.1-30.7c1.5-2.2,4.5-4.5,7-4.8
							c12.5-1.4,25-2.2,37.6-3.1c8.1-0.5,10.8,2.9,8.5,10.8c-12.4,42.7-24.8,85.5-37.1,128.2c-1.2,4-3.3,6.5-7.1,8.2
							c-18.2,8-36.3,16.2-54.3,24.5c-7.7,3.5-10.5,10.7-7.3,17.6c3.2,6.8,10.7,9.2,18.2,5.6c20.5-9.9,40.9-19.9,61.3-29.9
							c6.1-3,9.9-7.7,11.5-14.4c2.4-9.7,4.9-19.4,7.5-29.1c1.6-6.1,4-7.6,10-6.3c13.5,2.9,27,6.1,40.5,8.8c7.8,1.5,13.6,5.4,18.5,11.6
							c16.1,20.3,32.5,40.5,48.8,60.6c5.5,6.8,12.5,8,18.3,3.4c5.6-4.5,6-11.6,0.9-18.2c-18.6-23.7-37.1-47.4-55.9-70.9
							c-2.2-2.8-5.8-5-9.2-6.2c-7.5-2.6-15.3-4.3-23-6.3c-6.7-1.8-8.3-4.4-6.6-11.2c5.9-23.4,11.9-46.8,17.7-70.3c1.2-5,3.7-7.2,8.9-7.3
							c12.1-0.2,24.2-0.7,36.3-1.1c7.9-0.2,14.8-2.9,18.1-10.3c8.2-17.8,15.9-35.7,23.5-53.7c2.4-5.6-0.5-11.6-5.8-14
							c-5.4-2.4-11.1-0.4-14.2,5.1c-0.6,1.1-1.1,2.3-1.7,3.4c-5,10.6-10.1,21.2-15,31.9c-3.3,7.3-8.7,11.2-16.7,12.5
							c-16.1,2.5-31.8,2.3-47.7-1.8C213.3,119.9,201,118.2,190.7,116.2z"/>
						<path class="st0" fill="#f0ba1f" stroke="#f0ba1f" d="M231.2,98.4c-20.8-0.1-37.8-17.4-37.6-38.3c0.2-20.8,17-37.5,37.8-37.4c21,0,38.1,17.1,37.9,37.9
							C269.2,81.5,252,98.5,231.2,98.4z M230.7,85.1c13.8,0.3,25.2-10.6,25.4-24.3c0.2-13.2-10.5-24.4-23.9-24.9
							c-13.6-0.5-25.2,10.6-25.4,24.3C206.6,73.4,217.5,84.8,230.7,85.1z"/>
						</svg>